<?xml version="1.0" encoding="utf-8"?>
<!-- Generator: Adobe Illustrator 15.1.0, SVG Export Plug-In . SVG Version: 6.00 Build 0)  -->
<!DOCTYPE svg PUBLIC "-//W3C//DTD SVG 1.1//EN" "http://www.w3.org/Graphics/SVG/1.1/DTD/svg11.dtd">
<svg version="1.1" id="Layer_1" xmlns="http://www.w3.org/2000/svg" xmlns:xlink="http://www.w3.org/1999/xlink" x="0px" y="0px"
	 width="372.476px" height="107.92px" viewBox="0 0 372.476 107.92" enable-background="new 0 0 372.476 107.92"
	 xml:space="preserve">
<path fill="#0096D6" d="M86.614,37.452h-8.586l-12.04,33.017h8.586L86.614,37.452z M53.966,107.92c-0.539,0-1.069-0.014-1.608-0.027
	l11.036-30.305H78.57c2.657,0,5.586-2.048,6.497-4.552L97.02,40.173c1.97-5.381-1.114-9.784-6.838-9.784h-21.06L51.459,78.937
	h-0.014l-10.009,27.516C17.679,100.805,0,79.448,0,53.963C0,29.2,16.666,8.345,39.402,1.988L29.056,30.389h-0.007L11.875,77.588
	h11.439l14.604-40.107h8.614L31.911,77.588l11.436,0.004L56.95,40.173c1.96-5.381-1.121-9.784-6.836-9.784h-9.615L51.534,0.058
	C52.351,0.016,53.148,0,53.966,0c29.79,0,53.955,24.15,53.955,53.963C107.921,83.757,83.756,107.92,53.966,107.92"/>
<path fill="#231F20" d="M132.349,68.882c-1.164,0-1.746-0.551-1.746-1.653V36.736c1.762-0.346,3.547-0.605,5.357-0.779
	c1.811-0.173,3.422-0.26,4.839-0.26c1.983,0,3.705,0.189,5.169,0.566c1.463,0.378,2.674,0.992,3.635,1.841
	c0.959,0.85,1.667,1.968,2.123,3.352c0.457,1.385,0.684,3.084,0.684,5.098c0,3.903-0.825,6.727-2.476,8.473
	c-1.654,1.747-4.1,2.62-7.342,2.62c-0.786,0-1.533-0.04-2.242-0.119c-0.708-0.077-1.283-0.165-1.724-0.257v11.611H132.349z
	 M138.626,51.464c0.378,0.062,0.724,0.11,1.039,0.142c0.315,0.031,0.615,0.045,0.898,0.045c0.691,0,1.282-0.069,1.77-0.211
	s0.89-0.409,1.203-0.803c0.315-0.393,0.551-0.92,0.709-1.582c0.156-0.659,0.236-1.51,0.236-2.548c0-0.975-0.071-1.777-0.212-2.408
	c-0.142-0.629-0.355-1.125-0.639-1.487c-0.282-0.362-0.653-0.606-1.108-0.731c-0.457-0.126-0.985-0.189-1.582-0.189
	c-0.282,0-0.677,0.009-1.18,0.023c-0.503,0.017-0.881,0.04-1.134,0.071V51.464z"/>
<path fill="#231F20" d="M169.404,44.383h6.136c1.164,0,1.746,0.55,1.746,1.652v22.848h-4.531c-0.724,0-1.22-0.118-1.487-0.354
	c-0.268-0.236-0.528-0.748-0.779-1.534l-0.283-0.85c-1.101,1.196-2.179,2.047-3.233,2.55c-1.055,0.501-2.29,0.754-3.705,0.754
	c-4.469,0-6.704-2.769-6.704-8.307V44.383h6.136c1.164,0,1.748,0.55,1.748,1.652v14.302c0,0.82,0.156,1.426,0.471,1.818
	c0.316,0.395,0.898,0.59,1.747,0.59c0.472,0,0.959-0.078,1.463-0.235c0.503-0.157,0.927-0.393,1.275-0.707V44.383z"/>
<path fill="#231F20" d="M188.238,34.989c1.164,0,1.748,0.55,1.748,1.651v8.827c0.628-0.407,1.328-0.786,2.099-1.133
	c0.771-0.345,1.755-0.519,2.952-0.519c1.099,0,2.138,0.213,3.115,0.638c0.974,0.424,1.831,1.149,2.57,2.171
	c0.741,1.023,1.323,2.369,1.749,4.037c0.424,1.668,0.636,3.745,0.636,6.23c0,2.266-0.196,4.193-0.59,5.781
	c-0.394,1.591-1.031,2.896-1.911,3.919c-0.883,1.023-2.023,1.762-3.423,2.219c-1.399,0.455-3.093,0.686-5.073,0.686
	c-2.078,0-3.889-0.184-5.43-0.545c-1.542-0.36-2.629-0.699-3.257-1.015c-0.346-0.156-0.654-0.394-0.921-0.709
	c-0.267-0.312-0.401-0.815-0.401-1.51V34.989H188.238z M189.986,63.5c0.597,0.095,1.193,0.144,1.793,0.144
	c0.598,0,1.107-0.064,1.534-0.189c0.425-0.125,0.771-0.425,1.037-0.898c0.27-0.471,0.464-1.154,0.591-2.052
	c0.125-0.898,0.188-2.132,0.188-3.706c0-1.417-0.056-2.58-0.165-3.493c-0.111-0.913-0.292-1.637-0.543-2.172
	c-0.252-0.534-0.575-0.904-0.966-1.109c-0.396-0.204-0.891-0.307-1.489-0.307c-0.724,0-1.384,0.158-1.98,0.472V63.5z"/>
<path fill="#231F20" d="M215.334,61.424c0,0.629,0.093,1.078,0.283,1.345c0.188,0.269,0.596,0.433,1.227,0.496
	c0.629,0.062,1.006,0.234,1.132,0.518c0.125,0.285,0.189,0.726,0.189,1.322v3.494c-0.818,0.253-1.527,0.439-2.123,0.565
	c-0.599,0.125-1.369,0.188-2.315,0.188c-0.943,0-1.801-0.116-2.571-0.354c-0.772-0.235-1.433-0.645-1.983-1.227
	c-0.549-0.582-0.975-1.377-1.272-2.384c-0.302-1.009-0.449-2.266-0.449-3.778V34.989h6.135c1.165,0,1.749,0.55,1.749,1.652V61.424z"
	/>
<path fill="#231F20" d="M225.575,41.975c-1.604,0-2.745-0.274-3.422-0.826c-0.677-0.55-1.014-1.47-1.014-2.762
	c0-1.289,0.337-2.21,1.014-2.761c0.677-0.551,1.818-0.826,3.422-0.826c1.606,0,2.746,0.275,3.423,0.826
	c0.677,0.551,1.015,1.472,1.015,2.761c0,1.292-0.338,2.212-1.015,2.762C228.321,41.701,227.181,41.975,225.575,41.975
	 M229.541,68.882h-6.136c-1.167,0-1.749-0.551-1.749-1.653V44.383h6.14c1.164,0,1.745,0.55,1.745,1.652V68.882z"/>
<path fill="#231F20" d="M251.019,67.938c-0.817,0.409-1.738,0.772-2.76,1.085c-1.024,0.316-2.353,0.473-3.991,0.473
	c-3.681,0-6.323-1.016-7.929-3.044c-1.604-2.031-2.407-5.28-2.407-9.749c0-4.468,0.786-7.732,2.359-9.794
	c1.575-2.06,4.124-3.092,7.648-3.092c1.163,0,2.241,0.095,3.232,0.283c0.993,0.19,1.801,0.441,2.432,0.756
	c0.566,0.283,0.943,0.613,1.133,0.991c0.189,0.377,0.282,0.881,0.282,1.51v3.069c-0.942-0.095-1.895-0.165-2.854-0.213
	c-0.961-0.047-1.661-0.07-2.103-0.07c-0.881,0-1.589,0.102-2.123,0.306c-0.536,0.205-0.943,0.552-1.228,1.039
	c-0.283,0.488-0.473,1.133-0.568,1.935c-0.093,0.803-0.141,1.817-0.141,3.046c0,1.321,0.048,2.414,0.141,3.279
	c0.096,0.866,0.271,1.542,0.521,2.028c0.252,0.49,0.614,0.828,1.086,1.016c0.472,0.188,1.07,0.283,1.793,0.283
	c0.189,0,0.442-0.007,0.756-0.022c0.314-0.015,0.639-0.024,0.968-0.024c0.331,0,0.646-0.007,0.943-0.022
	c0.299-0.017,0.528-0.025,0.685-0.025c0.725,0,1.26,0.144,1.604,0.427c0.348,0.282,0.52,0.755,0.52,1.414V67.938z"/>
<path fill="#231F20" d="M276.273,35.555c1.067,0,2.131,0.094,3.186,0.283c1.054,0.189,1.896,0.441,2.525,0.756
	c0.566,0.283,0.943,0.612,1.134,0.991c0.188,0.378,0.283,0.881,0.283,1.51v3.494c-0.944-0.063-1.882-0.118-2.81-0.165
	c-0.928-0.048-1.941-0.072-3.045-0.072c-1.07,0-1.943,0.151-2.62,0.449c-0.676,0.3-1.211,0.818-1.604,1.557
	c-0.395,0.74-0.661,1.756-0.804,3.045c-0.142,1.292-0.213,2.927-0.213,4.91c0,2.046,0.078,3.729,0.236,5.05
	c0.158,1.322,0.424,2.377,0.802,3.163c0.379,0.788,0.874,1.338,1.488,1.652c0.614,0.315,1.361,0.472,2.242,0.472
	c1.038,0,1.99-0.029,2.855-0.095c0.865-0.062,1.566-0.092,2.103-0.092c1.132,0,1.696,0.564,1.696,1.699v3.868
	c-1.068,0.442-2.239,0.795-3.516,1.064c-1.275,0.266-2.873,0.401-4.791,0.401c-1.761,0-3.35-0.26-4.767-0.779
	c-1.417-0.521-2.627-1.424-3.634-2.715c-1.01-1.29-1.779-3.022-2.314-5.193c-0.536-2.171-0.803-4.924-0.803-8.26
	c0-3.21,0.227-5.901,0.683-8.073c0.458-2.17,1.182-3.917,2.173-5.238c0.991-1.322,2.274-2.266,3.849-2.834
	C272.18,35.838,274.07,35.555,276.273,35.555"/>
<path fill="#231F20" d="M295.674,61.424c0,0.629,0.094,1.078,0.283,1.345c0.188,0.269,0.597,0.433,1.228,0.496
	c0.629,0.062,1.007,0.234,1.131,0.518c0.126,0.285,0.19,0.726,0.19,1.322v3.494c-0.817,0.253-1.527,0.439-2.124,0.565
	c-0.6,0.125-1.369,0.188-2.313,0.188c-0.945,0-1.802-0.116-2.573-0.354c-0.771-0.235-1.432-0.645-1.981-1.227
	c-0.551-0.582-0.979-1.377-1.274-2.384c-0.301-1.009-0.45-2.266-0.45-3.778V34.989h6.138c1.163,0,1.747,0.55,1.747,1.652V61.424z"/>
<path fill="#231F20" d="M311.676,69.496c-1.922,0-3.564-0.245-4.934-0.731c-1.37-0.487-2.486-1.251-3.352-2.289
	c-0.866-1.039-1.493-2.368-1.889-3.989c-0.395-1.621-0.59-3.564-0.59-5.83c0-2.297,0.195-4.255,0.59-5.877
	c0.396-1.62,1.022-2.951,1.889-3.989c0.865-1.038,1.981-1.794,3.352-2.266c1.369-0.472,3.012-0.708,4.934-0.708
	c1.919,0,3.563,0.236,4.932,0.708c1.369,0.472,2.487,1.228,3.352,2.266c0.865,1.038,1.493,2.369,1.889,3.989
	c0.393,1.622,0.591,3.58,0.591,5.877c0,2.266-0.198,4.209-0.591,5.83c-0.396,1.621-1.023,2.95-1.889,3.989
	c-0.864,1.038-1.982,1.802-3.352,2.289C315.24,69.25,313.595,69.496,311.676,69.496 M314.46,56.656c0-1.51-0.041-2.714-0.117-3.611
	c-0.078-0.897-0.23-1.588-0.449-2.077c-0.221-0.488-0.504-0.81-0.851-0.968c-0.347-0.157-0.802-0.236-1.367-0.236
	c-0.569,0-1.025,0.079-1.37,0.236c-0.347,0.158-0.629,0.48-0.851,0.968c-0.22,0.489-0.369,1.18-0.446,2.077
	c-0.078,0.897-0.118,2.101-0.118,3.611c0,1.542,0.04,2.769,0.118,3.681c0.077,0.913,0.227,1.614,0.446,2.104
	c0.222,0.487,0.504,0.809,0.851,0.967c0.345,0.157,0.801,0.236,1.37,0.236c0.565,0,1.021-0.079,1.367-0.236
	c0.347-0.158,0.63-0.479,0.851-0.967c0.219-0.489,0.371-1.19,0.449-2.104C314.419,59.424,314.46,58.198,314.46,56.656"/>
<path fill="#231F20" d="M339.244,44.383h6.138c1.164,0,1.746,0.55,1.746,1.652v22.848h-4.532c-0.723,0-1.22-0.118-1.486-0.354
	c-0.269-0.236-0.528-0.748-0.778-1.534l-0.283-0.85c-1.103,1.196-2.181,2.047-3.234,2.55c-1.054,0.501-2.29,0.754-3.705,0.754
	c-4.469,0-6.705-2.769-6.705-8.307V44.383h6.138c1.163,0,1.747,0.55,1.747,1.652v14.302c0,0.82,0.156,1.426,0.473,1.818
	c0.313,0.395,0.896,0.59,1.746,0.59c0.471,0,0.96-0.078,1.463-0.235s0.927-0.393,1.274-0.707V44.383z"/>
<path fill="#231F20" d="M359.116,69.26c-1.131,0-2.171-0.215-3.115-0.639c-0.942-0.425-1.746-1.124-2.406-2.101
	c-0.66-0.975-1.181-2.265-1.559-3.87c-0.379-1.605-0.564-3.572-0.564-5.9c0-4.469,0.729-7.703,2.192-9.701
	c1.463-1.999,3.752-2.998,6.868-2.998c1.007,0,1.842,0.079,2.502,0.237c0.662,0.157,1.182,0.314,1.557,0.471v-9.771h6.14
	c1.164,0,1.746,0.55,1.746,1.652v32.241h-4.531c-0.726,0-1.22-0.118-1.487-0.355c-0.269-0.235-0.527-0.747-0.778-1.533l-0.283-0.802
	c-0.727,0.818-1.599,1.533-2.62,2.147C361.752,68.952,360.532,69.26,359.116,69.26 M364.59,49.859
	c-0.312-0.063-0.645-0.111-0.989-0.142c-0.349-0.032-0.646-0.048-0.898-0.048c-0.754,0-1.343,0.127-1.768,0.378
	c-0.425,0.252-0.749,0.638-0.969,1.157c-0.223,0.52-0.363,1.18-0.426,1.983c-0.062,0.802-0.094,1.754-0.094,2.854
	c0,1.354,0.032,2.472,0.094,3.354c0.062,0.881,0.19,1.579,0.378,2.099c0.19,0.52,0.456,0.891,0.803,1.11
	c0.346,0.221,0.803,0.33,1.369,0.33c0.534,0,1.007-0.079,1.415-0.237c0.408-0.155,0.773-0.345,1.085-0.565V49.859z"/>
</svg>
